<svg width="32" height="32" viewBox="0 0 32 32" fill="none" xmlns="http://www.w3.org/2000/svg">
<path d="M0 19.0413V20.7092L15.9986 26.8336V25.3991L11.7131 23.7928V23.7848L10.3368 23.2366L1.51283 19.9819L10.3384 16.7504V16.7576L11.7146 16.2587L16.0001 14.6524V13.1113L0 19.0413Z" fill="#D1D5DB"/>
<path d="M16.0001 24.0696V22.4023L0 16.2773V17.7113L4.2859 19.317V19.3279L5.66227 19.8759L14.4871 23.1294L5.66227 26.3619V26.3546L4.2859 26.8534L0 28.4591V29.9996L16.0001 24.0696Z" fill="#D1D5DB"/>
<path d="M20.3237 26.8333H22.1382L28.8006 11H27.2401L25.4927 15.242H25.4809L24.8844 16.6032L21.3438 25.3361L17.826 16.6032H17.8339L17.2911 15.242L15.5436 11H13.8672L20.3237 26.8333Z" fill="#D1D5DB"/>
<path d="M23.5229 26.8333H25.3374L31.9998 11H30.4394L28.6919 15.2418H28.6801L28.0837 16.603L24.543 25.3354L21.0252 16.603H21.0331L20.4903 15.2418L18.7429 11H17.0664L23.5229 26.8333Z" fill="#D1D5DB"/>
</svg>
